# xmcd
#
# Track frame offsets: 
#        150
#        14414
#        28193
#        44268
#        58282
#        75446
#        90400
#        104939
#        119274
#        136383
#        151807
#        168485
#        182013
#
# Disc length: 2659 seconds
#
# Revision: 0
# Processed by: cddbd v1.5.2PL0 Copyright (c) Steve Scherf et al.
# Submitted via: ExactAudioCopy v1.3
#
DISCID=a90a610d
DTITLE=Lady Antebellum - Heart Break
DYEAR=2017
DGENRE=Country
TTITLE0=Heart Break
TTITLE1=You Look Good
TTITLE2=Somebody Else's Heart
TTITLE3=This City
TTITLE4=Hut
TTITLE5=Amy
TTITLE6=Think About You
TTITLE7=Good Time To Be Alive
TTITLE8=Big Love in a Small Town
TTITLE9=Stars
TTITLE10=Teenage Heart
TTITLE11=Home
TTITLE12=Famous
EXTD=
EXTT0=
EXTT1=
EXTT2=
EXTT3=
EXTT4=
EXTT5=
EXTT6=
EXTT7=
EXTT8=
EXTT9=
EXTT10=
EXTT11=
EXTT12=
PLAYORDER=
